<?xml version="1.0" encoding="utf-8"?>
<svg version="1.1" xmlns="http://www.w3.org/2000/svg" xmlns:xlink="http://www.w3.org/1999/xlink" viewBox="0 0 186 189">
	<path fill="#44BCCC" d="M93.4,14.4c47,0.3,83.2,37,82.5,83.1c-0.7,48-36.8,81.6-82.4,81.8c-46.4,0.2-82.7-35.9-82.6-82.8C10.9,51.1,47.2,14.4,93.4,14.4z"/>
	<path fill="#FFFFFF" d="M93.9,26c40.8,1.6,70.5,31.2,70.1,71.5c-0.4,41-30.8,70-70.6,70.2c-40.3,0.3-71.1-31.5-70.8-71.3C22.9,57.1,53.3,26.6,93.9,26z"/>
	<path fill="#44BCCC" d="M61,85.3c8-16.8,19.3-31.6,29.7-46.9c2.2-3.2,3.6-2.5,5.4,0C107,54.4,118.5,70,127,87.5c7.3,14.9,12.8,29.4,2.2,46.2c-9.5,15.1-27.6,23-44,19.8c-14.3-2.8-23.6-11.5-30.1-24C52.3,124.1,48.2,110.5,61,85.3z"/>
	<path fill="#FEFFFF" d="M86.6,66.2c1.5,0.7,1.1,1.8,1.1,2.6c0,24.1,0,48.2,0,72.5c-20.8-4.4-27.7-20.8-21.9-38.2C70.2,89.8,77.6,77.4,86.6,66.2z"/>
	<path fill="#FDFEFE" d="M98.3,141.7c4-13.5,15-19.7,23.1-29.3C124.4,125.7,115.3,137.2,98.3,141.7z"/>
	<path fill="#FEFFFF" d="M100.2,117.5c-5-14.9,6.6-20.3,13.8-28.3c4.2,9.4,4,9.2-3.6,17.6C107.2,110.4,103.9,113.7,100.2,117.5z"/>
	<path fill="#FAFDFE" d="M99.7,66.3c9.7,8.6,9.7,11.6,0,20C99.7,79.5,99.7,73.2,99.7,66.3z"/>
</svg>
