<?xml version="1.0" encoding="UTF-8" standalone="no"?>
<svg
   xmlns:svg="http://www.w3.org/2000/svg"
   xmlns="http://www.w3.org/2000/svg"
   version="1.1"
   viewBox="0 0 558.7 225.15978">
  <style type="text/css">
	.st3{fill:#ffffff;}
  </style>
  <g transform="translate(-141.6,-183.9)">
    <path
       class="st3"
       d="m 363.9,271.3 c -2,-8.6 -4.9,-16.9 -8.8,-24.6 l -55.5,0 c -1.5,0 -2.8,0.9 -3.4,2.3 l -23.6,57 -23.1,-50.7 c -2.4,-5.2 -7.6,-8.6 -13.4,-8.6 l 0,0 c -5.9,0 -11.3,3.6 -13.6,9.1 L 197,317.4 c -0.6,1.4 -1.9,2.3 -3.4,2.3 l -24.6,0 c -5.5,-20.2 -4,-43.2 7.3,-66.7 7.1,-14.7 18.9,-26.6 33.6,-33.9 41.2,-20.5 82.1,-10.1 107.4,15.7 l 31,0 C 328.2,204.2 293.6,184 254.2,184 192,184 141.6,234.4 141.6,296.6 c 0,7.9 0.8,15.7 2.4,23.1 1.8,8.6 4.6,16.8 8.2,24.6 l 57.9,0 c 1.5,0 2.8,-0.9 3.4,-2.3 l 22.9,-55.2 21.9,48.1 c 2.6,5.7 8.3,9.4 14.6,9.4 l 0,0 c 6.5,0 12.3,-3.9 14.8,-9.9 l 25.1,-60.7 c 0.6,-1.4 1.9,-2.3 3.4,-2.3 l 22.6,0 c 2.4,8 3.6,16.4 3.6,25.1 0,48.8 -39.5,88.3 -88.3,88.3 -25.6,0 -48.6,-10.9 -64.7,-28.3 l -30.5,0 c 28.5,45.2 88.3,68.7 149.1,40 20.5,-9.7 36.9,-26.3 46.5,-46.8 12.6,-27.1 14.9,-54.2 9.4,-78.4 z"/>
    <g id="g9">
      <path
         class="st3"
         d="m 387.3,183.9 c 0,0 0.2,14.1 0.4,35.1 0.1,10.5 0.2,22.8 0.2,36 0,13.2 0.1,27.2 0.1,41.3 0,14.1 -0.1,28.1 -0.1,41.3 -0.1,13.2 -0.2,25.5 -0.2,36 -0.3,21.1 -0.4,35.1 -0.4,35.1 0,0 -0.2,-14.1 -0.4,-35.1 -0.1,-10.5 -0.2,-22.8 -0.2,-36 0,-13.2 -0.1,-27.2 -0.1,-41.3 0,-14.1 0.1,-28.1 0.1,-41.3 0.1,-13.2 0.2,-25.5 0.2,-36 0.2,-21.1 0.4,-35.1 0.4,-35.1 z" />
    </g>
    <g id="g13">
      <path
         class="st3"
         d="m 464.2,351.1 0,-44 -29.1,0 0,44 -27.3,0 0,-111.2 27.3,0 0,42.8 29.1,0 0,-42.8 27.3,0 0,111.2 -27.3,0 z" />
      <path
         class="st3"
         d="m 554.2,352 c -23.1,0 -42,-15.6 -42,-40 l 0,-72.1 27.3,0 0,71.5 c 0,10.3 5.6,16.2 14.7,16.2 9.1,0 15,-5.9 15,-16.2 l 0,-71.5 27.3,0 0,72.1 c 0,24.4 -19.2,40 -42.3,40 z" />
      <path
         class="st3"
         d="m 665.6,351.1 -48.4,0 0,-111.2 46.1,0 c 23.1,0 35.5,13 35.5,32.2 0,12.7 -8.7,19.7 -12.2,22 4.5,2.8 13.7,8.6 13.7,24.2 0,21.2 -14.9,32.8 -34.7,32.8 z m -4.1,-86.7 -17,0 0,18.1 17,0 c 7.5,0 9.8,-4.7 9.8,-9.1 0.1,-4.3 -2.2,-9 -9.8,-9 z m 1.5,42.7 -18.4,0 0,19.5 18.4,0 c 7.5,0 10,-5.2 10,-9.8 0,-4.7 -2.5,-9.7 -10,-9.7 z" />
    </g>
  </g>
</svg>
