<?xml version="1.0" encoding="UTF-8" standalone="no"?>
<svg
   xmlns:svg="http://www.w3.org/2000/svg"
   xmlns="http://www.w3.org/2000/svg"
   viewBox="0 0 126.32946 127.24377"
   id="svg2"
   version="1.1">
  <g
     transform="translate(-372.98066,-343.06448)">
    <path
       style="fill:#3ba0cc;fill-opacity:0.5"
       d="m 436.39171,343.07027 c -20.20239,-0.29928 -43.17327,11.02574 -52.33505,27.98905 l 24.5811,17.15862 c 11.9855,-18.55956 41.85182,-19.45111 54.92221,-1.63847 1.04855,2.86117 3.09804,-0.58879 4.69492,-1.18497 l 21.08255,-14.76213 c -11.79936,-17.09294 -32.17784,-27.69945 -52.94573,-27.5621 z" 
    />
    <path
       style="fill:#d8b5df;fill-opacity:0.5"
       d="m 490.61037,438.23695 c 10.36037,-17.34614 12.03807,-42.90202 1.9283,-59.31801 l -27.15036,12.70855 c 10.0803,19.65953 -4.08075,45.97029 -26.04214,48.38327 -3.00212,-0.52253 -1.03913,2.97737 -1.32125,4.6584 l 2.2431,25.63908 c 20.70261,-1.67207 40.07736,-14.0171 50.34235,-32.07129 z" 
    />
    <path
       style="fill:#acc766;fill-opacity:0.5"
       d="m 381.62247,438.41088 c 9.84201,17.64542 31.1352,31.87628 50.40675,31.32896 l 2.56925,-29.86717 c -22.0658,-1.09997 -37.77106,-26.51919 -28.88006,-46.74479 1.95357,-2.33866 -2.05892,-2.38859 -3.37368,-3.47344 l -23.32564,-10.87696 c -8.90325,18.76502 -7.89951,41.71656 2.60338,59.6334 z" 
    />
    <path
       style="fill:#ba514b;fill-opacity:0.5"
       d="m 391.94508,380.53655 c -8.31468,13.91217 -9.66624,34.41187 -1.56022,47.58252 l 21.78199,-10.18824 c -8.08163,-15.77251 3.28383,-36.87494 20.90108,-38.80558 2.40809,0.41982 0.83422,-2.38812 1.06092,-3.73653 l -1.79355,-20.56733 c -16.60733,1.3366 -32.1519,11.235 -40.39022,25.71516 z" 
    />
    <path
       style="fill:#fa8b60;fill-opacity:0.5"
       d="M 479.80315,381.06554 C 471.91221,366.90875 454.83473,355.4884 439.3756,355.92309 l -2.06772,23.95788 c 17.70021,0.88736 30.29271,21.28135 23.15609,37.50365 -1.56763,1.87555 1.65104,1.91653 2.70545,2.78705 l 18.70861,8.73041 c 7.14613,-15.05068 6.34615,-33.46187 -2.07488,-47.83654 z"
    />
    <path
       style="fill:#fadc40;fill-opacity:0.5"
       d="m 436.18939,456.8366 c 16.20562,0.24463 34.63466,-8.83473 41.98777,-22.44008 L 458.4629,420.62689 c -9.61858,14.88516 -33.57655,15.59358 -44.05716,1.30192 -0.84047,-2.29537 -2.48528,0.4716 -3.76638,0.94949 l -16.91506,11.83692 c 9.46119,13.71407 25.80575,22.22687 42.46509,22.12138 z"
    />
  </g>
</svg>
